{
  "accessors": [
    {
      "name": "mesh-Mesh_0_positions",
      "componentType": 5126,
      "count": 14873,
      "min": [-0.13855299353599548, -0.3114849925041199, -0.15257999300956726],
      "max": [0.12219099700450897, 0.20945000648498535, 0.21527299284934998],
      "type": "VEC3",
      "bufferView": 0,
      "byteOffset": 0
    },
    {
      "name": "mesh-Mesh_0_normals",
      "componentType": 5126,
      "count": 14873,
      "min": [-0.9999223351478577, -0.9999098181724548, -0.999934732913971],
      "max": [0.9998558759689331, 0.9998998045921326, 0.9999979734420776],
      "type": "VEC3",
      "bufferView": 1,
      "byteOffset": 0
    },
    {
      "name": "mesh-Mesh_0_texcoords",
      "componentType": 5126,
      "count": 14873,
      "min": [0, 0],
      "max": [1, 1],
      "type": "VEC2",
      "bufferView": 2,
      "byteOffset": 0
    },
    {
      "name": "mesh-Mesh_0_indices",
      "componentType": 5123,
      "count": 81792,
      "min": [0],
      "max": [14872],
      "type": "SCALAR",
      "bufferView": 3,
      "byteOffset": 0
    }
  ],
  "asset": { "generator": "obj2gltf", "version": "2.0" },
  "buffers": [
    {
      "name": "mesh",
      "byteLength": 1284744,
      "uri": "data:application/octet-stream;base64,"
    }
  ],
  "bufferViews": [
    {
      "name": "bufferView_0",
      "buffer": 0,
      "byteLength": 178476,
      "byteOffset": 0,
      "byteStride": 12,
      "target": 34962
    },
    {
      "name": "bufferView_1",
      "buffer": 0,
      "byteLength": 178476,
      "byteOffset": 178476,
      "byteStride": 12,
      "target": 34962
    },
    {
      "name": "bufferView_2",
      "buffer": 0,
      "byteLength": 118984,
      "byteOffset": 356952,
      "byteStride": 8,
      "target": 34962
    },
    {
      "name": "bufferView_3",
      "buffer": 0,
      "byteLength": 163584,
      "byteOffset": 475936,
      "target": 34963
    },
    { "buffer": 0, "byteOffset": 639520, "byteLength": 645221 }
  ],
  "images": [{ "name": "mesh", "mimeType": "image/jpeg", "bufferView": 4 }],
  "materials": [
    {
      "name": "mesh",
      "pbrMetallicRoughness": {
        "baseColorTexture": { "index": 0 },
        "baseColorFactor": [1, 1, 1, 1],
        "metallicFactor": 0,
        "roughnessFactor": 0.9
      },
      "emissiveFactor": [0, 0, 0],
      "alphaMode": "OPAQUE",
      "doubleSided": false
    }
  ],
  "meshes": [
    {
      "name": "mesh-Mesh",
      "primitives": [
        {
          "attributes": { "POSITION": 0, "NORMAL": 1, "TEXCOORD_0": 2 },
          "indices": 3,
          "material": 0,
          "mode": 4
        }
      ]
    }
  ],
  "nodes": [{ "name": "mesh", "mesh": 0 }],
  "samplers": [
    { "magFilter": 9729, "minFilter": 9986, "wrapS": 10497, "wrapT": 10497 }
  ],
  "scene": 0,
  "scenes": [{ "nodes": [0] }],
  "textures": [{ "name": "mesh", "sampler": 0, "source": 0 }]
}
